<svg width="250" height="250" viewBox="0 0 250 250" fill="none" xmlns="http://www.w3.org/2000/svg">
<rect width="250" height="250" fill="#F1592A"/>
<rect x="22.2469" y="39.8817" width="206.544" height="175.423" fill="#F1592A" stroke="white" stroke-width="3"/>
<path d="M162.277 198.133V137.863H170.973L212.645 187.198L211.612 187.973C211.325 186.423 211.095 184.759 210.923 182.979C210.751 181.142 210.578 179.248 210.406 177.297C210.291 175.288 210.177 173.221 210.062 171.098C210.004 168.916 209.947 166.706 209.89 164.468C209.89 162.229 209.89 159.962 209.89 157.666V137.863H219.188V198.133H210.32L169.251 150.606L169.853 149.4C170.026 151.926 170.198 154.222 170.37 156.288C170.542 158.297 170.714 160.134 170.887 161.799C171.059 163.463 171.174 164.984 171.231 166.362C171.346 167.682 171.432 168.916 171.489 170.064C171.547 171.155 171.575 172.159 171.575 173.078V198.133H162.277Z" fill="white"/>
<path d="M85.0121 198.133L110.756 137.863H120.83L146.401 198.133H136.327L119.969 159.732C119.682 159.044 119.28 158.039 118.763 156.719C118.304 155.341 117.787 153.878 117.213 152.328C116.639 150.778 116.094 149.314 115.577 147.937C115.061 146.502 114.659 145.382 114.372 144.579L116.697 144.493C116.295 145.641 115.836 146.904 115.319 148.281C114.86 149.659 114.343 151.065 113.769 152.5C113.253 153.935 112.736 155.313 112.22 156.633C111.703 157.896 111.244 159.044 110.842 160.077L94.5692 198.133H85.0121ZM96.2912 183.496L99.9074 174.541H130.559L133.572 183.496H96.2912Z" fill="white"/>
<path d="M31.95 198.133V137.863H60.7072C64.0938 137.863 67.1647 138.695 69.9199 140.36C72.7325 141.967 74.971 144.177 76.6356 146.99C78.3576 149.802 79.2186 152.93 79.2186 156.374C79.2186 159.876 78.3289 163.062 76.5495 165.932C74.8275 168.802 72.5028 171.098 69.5755 172.82C66.7055 174.541 63.5198 175.402 60.0184 175.402H41.2487V198.133H31.95ZM41.2487 166.448H59.5879C61.3673 166.448 63.0032 165.989 64.4956 165.071C66.0454 164.152 67.2795 162.947 68.1979 161.454C69.1163 159.905 69.5755 158.211 69.5755 156.374C69.5755 154.595 69.1163 152.988 68.1979 151.553C67.2795 150.118 66.0454 148.97 64.4956 148.109C63.0032 147.248 61.3673 146.817 59.5879 146.817H41.2487V166.448Z" fill="white"/>
<path fill-rule="evenodd" clip-rule="evenodd" d="M161.239 199.17V136.826H171.454L209.812 182.236C209.665 180.661 209.519 179.045 209.373 177.388L209.371 177.372L209.371 177.356C209.256 175.346 209.141 173.278 209.026 171.153L209.025 171.139L209.025 171.125C208.967 168.943 208.91 166.733 208.853 164.494L208.852 164.481V136.826H220.226V199.17H209.845L171.268 154.527C171.313 155.101 171.358 155.659 171.403 156.201C171.575 158.204 171.747 160.035 171.918 161.692C172.091 163.364 172.208 164.899 172.266 166.295C172.381 167.618 172.467 168.857 172.525 170.012C172.583 171.117 172.613 172.139 172.613 173.078V199.17H161.239ZM171.489 170.064C171.432 168.916 171.346 167.682 171.231 166.362C171.173 164.984 171.059 163.463 170.886 161.799C170.714 160.134 170.542 158.297 170.37 156.288C170.288 155.312 170.207 154.284 170.126 153.205C170.083 152.641 170.041 152.063 169.998 151.471L210.32 198.133H219.188V137.863H209.89V164.468C209.947 166.706 210.004 168.916 210.062 171.098C210.177 173.221 210.291 175.288 210.406 177.297C210.578 179.248 210.751 181.142 210.923 182.979C210.944 183.198 210.966 183.415 210.989 183.63C211.057 184.271 211.133 184.897 211.217 185.507L170.973 137.863H162.276V198.133H171.575V173.078C171.575 172.159 171.547 171.155 171.489 170.064Z" fill="#F1592A"/>
<path fill-rule="evenodd" clip-rule="evenodd" d="M83.4411 199.17L110.071 136.826H121.516L147.968 199.17H135.642L129.406 184.533H101.513L95.2539 199.17H83.4411ZM100.828 183.496H130.092L136.328 198.133H146.401L120.83 137.863H110.756L85.0122 198.133H94.5693L100.828 183.496ZM119.969 159.732C119.682 159.044 119.28 158.039 118.763 156.719C118.304 155.341 117.787 153.878 117.213 152.328C116.822 151.27 116.443 150.252 116.078 149.274C115.974 148.996 115.872 148.722 115.77 148.45C115.767 148.443 115.765 148.436 115.762 148.429C115.7 148.263 115.639 148.099 115.578 147.937C115.556 147.877 115.535 147.818 115.514 147.76C115.485 147.837 115.457 147.913 115.428 147.991C115.428 147.991 115.427 147.992 115.427 147.993C115.391 148.089 115.355 148.185 115.319 148.281C115.208 148.615 115.093 148.95 114.975 149.287C114.606 150.342 114.204 151.413 113.769 152.5C113.253 153.935 112.736 155.313 112.22 156.633C111.703 157.896 111.244 159.044 110.842 160.077L104.657 174.541H126.277L119.969 159.732ZM124.708 173.504L119.011 160.131C118.72 159.432 118.315 158.419 117.797 157.097L117.788 157.072L117.779 157.047C117.324 155.681 116.811 154.229 116.241 152.688C116.001 152.041 115.767 151.409 115.537 150.792C115.284 151.478 115.019 152.17 114.739 152.868C114.222 154.305 113.704 155.686 113.186 157.011L113.183 157.018L113.18 157.026C112.665 158.284 112.208 159.426 111.809 160.453L111.803 160.469L106.229 173.504H124.708Z" fill="#F1592A"/>
<path fill-rule="evenodd" clip-rule="evenodd" d="M30.9126 199.17V136.826H60.7072C64.2682 136.826 67.5227 137.702 70.4455 139.466C73.4083 141.161 75.7715 143.495 77.5242 146.454C79.348 149.436 80.256 152.751 80.256 156.374C80.256 160.059 79.3175 163.433 77.4352 166.472C75.6237 169.488 73.1755 171.905 70.1049 173.712C67.0672 175.533 63.697 176.44 60.0184 176.44H42.286V199.17H30.9126ZM41.2487 175.402H60.0184C63.5198 175.402 66.7055 174.542 69.5755 172.82C72.5028 171.098 74.8275 168.802 76.5495 165.932C78.3289 163.062 79.2186 159.876 79.2186 156.374C79.2186 152.931 78.3576 149.802 76.6356 146.99C74.971 144.177 72.7324 141.967 69.9199 140.36C67.1647 138.695 64.0938 137.863 60.7072 137.863H31.9499V198.133H41.2487V175.402ZM63.9593 164.183L63.9667 164.178C65.3735 163.345 66.4827 162.26 67.3099 160.918C68.1285 159.534 68.5381 158.026 68.5381 156.374C68.5381 154.784 68.1308 153.373 67.3241 152.112C66.5022 150.828 65.3977 149.797 63.9918 149.016L63.9845 149.012L63.9772 149.007C62.6477 148.24 61.1916 147.855 59.5879 147.855H42.286V165.411H59.5879C61.1785 165.411 62.6257 165.003 63.9519 164.187L63.9593 164.183ZM41.2487 166.448V146.817H59.5879C61.3673 146.817 63.0032 147.248 64.4956 148.109C66.0454 148.97 67.2795 150.118 68.1979 151.553C69.1163 152.988 69.5755 154.595 69.5755 156.374C69.5755 158.211 69.1163 159.905 68.1979 161.454C67.2795 162.947 66.0454 164.152 64.4956 165.071C63.0032 165.989 61.3673 166.448 59.5879 166.448H41.2487Z" fill="#F1592A"/>
<path d="M162.277 114.108V53.8382H170.973L212.645 103.173L211.612 103.948C211.325 102.398 211.095 100.734 210.923 98.9543C210.751 97.1176 210.578 95.2234 210.406 93.2718C210.291 91.2628 210.177 89.1964 210.062 87.0726C210.004 84.8914 209.947 82.6815 209.89 80.4429C209.89 78.2043 209.89 75.9371 209.89 73.6411V53.8382H219.188V114.108H210.32L169.251 66.5809L169.853 65.3755C170.026 67.9011 170.198 70.1971 170.37 72.2635C170.542 74.2725 170.714 76.1093 170.887 77.7739C171.059 79.4384 171.174 80.9595 171.231 82.3371C171.346 83.6573 171.432 84.8914 171.489 86.0394C171.547 87.13 171.575 88.1345 171.575 89.0529V114.108H162.277Z" fill="white"/>
<path d="M85.0121 114.108L110.756 53.8382H120.83L146.401 114.108H136.327L119.969 75.7075C119.682 75.0187 119.28 74.0142 118.763 72.694C118.304 71.3164 117.787 69.8527 117.213 68.3029C116.639 66.7531 116.094 65.2894 115.577 63.9118C115.061 62.4768 114.659 61.3575 114.372 60.5539L116.697 60.4678C116.295 61.6158 115.836 62.8786 115.319 64.2562C114.86 65.6338 114.343 67.0401 113.769 68.4751C113.253 69.9101 112.736 71.2877 112.22 72.6079C111.703 73.8707 111.244 75.0187 110.842 76.0519L94.5692 114.108H85.0121ZM96.2912 99.4709L99.9074 90.5166H130.559L133.572 99.4709H96.2912Z" fill="white"/>
<path d="M31.95 114.108V53.8382H60.7072C64.0938 53.8382 67.1647 54.6705 69.9199 56.3351C72.7325 57.9422 74.971 60.1521 76.6356 62.9647C78.3576 65.7773 79.2186 68.9056 79.2186 72.3496C79.2186 75.851 78.3289 79.0366 76.5495 81.9066C74.8275 84.7766 72.5029 87.0726 69.5755 88.7946C66.7055 90.5166 63.5198 91.3776 60.0184 91.3776H41.2487V114.108H31.95ZM41.2487 82.4232H59.5879C61.3673 82.4232 63.0032 81.964 64.4956 81.0456C66.0454 80.1272 67.2795 78.9218 68.1979 77.4295C69.1163 75.8797 69.5755 74.1864 69.5755 72.3496C69.5755 70.5702 69.1163 68.963 68.1979 67.528C67.2795 66.093 66.0454 64.945 64.4956 64.084C63.0032 63.223 61.3673 62.7925 59.5879 62.7925H41.2487V82.4232Z" fill="white"/>
<path fill-rule="evenodd" clip-rule="evenodd" d="M161.239 115.145V52.8008H171.454L209.812 98.2115C209.665 96.6366 209.519 95.0204 209.373 93.363L209.371 93.347L209.371 93.331C209.256 91.3209 209.141 89.2534 209.026 87.1286L209.025 87.1143L209.025 87.0999C208.967 84.9185 208.91 82.7083 208.853 80.4695L208.852 80.4562V52.8008H220.226V115.145H209.845L171.268 70.5021C171.313 71.0759 171.358 71.6338 171.403 72.1758C171.575 74.1796 171.747 76.0099 171.918 77.6671C172.091 79.3391 172.208 80.8739 172.266 82.2703C172.381 83.5926 172.467 84.8317 172.525 85.9874C172.583 87.0919 172.613 88.114 172.613 89.0529V115.145H161.239ZM171.489 86.0394C171.432 84.8914 171.346 83.6573 171.231 82.3371C171.173 80.9595 171.059 79.4384 170.886 77.7739C170.714 76.1093 170.542 74.2725 170.37 72.2635C170.288 71.287 170.207 70.2593 170.126 69.1802C170.083 68.6162 170.041 68.0381 169.998 67.446L210.32 114.108H219.188V53.8382H209.89V80.4429C209.947 82.6815 210.004 84.8914 210.062 87.0726C210.177 89.1964 210.291 91.2628 210.406 93.2718C210.578 95.2234 210.751 97.1176 210.923 98.9544C210.944 99.1731 210.966 99.39 210.989 99.6053C211.057 100.246 211.133 100.872 211.217 101.482L170.973 53.8382H162.276V114.108H171.575V89.0529C171.575 88.1345 171.547 87.13 171.489 86.0394Z" fill="#F1592A"/>
<path fill-rule="evenodd" clip-rule="evenodd" d="M83.4411 115.145L110.071 52.8008H121.516L147.968 115.145H135.642L129.406 100.508H101.513L95.2539 115.145H83.4411ZM100.828 99.471H130.092L136.328 114.108H146.401L120.83 53.8382H110.756L85.0122 114.108H94.5693L100.828 99.471ZM119.969 75.7075C119.682 75.0187 119.28 74.0142 118.763 72.694C118.304 71.3164 117.787 69.8527 117.213 68.3029C116.822 67.2449 116.443 66.2271 116.078 65.2493C115.974 64.9714 115.872 64.6967 115.77 64.4252C115.767 64.4181 115.765 64.4109 115.762 64.4038C115.7 64.2386 115.639 64.0746 115.578 63.9118C115.556 63.8524 115.535 63.7935 115.514 63.7351C115.485 63.8116 115.457 63.8885 115.428 63.9657C115.428 63.9665 115.427 63.9674 115.427 63.9683C115.391 64.0637 115.355 64.1597 115.319 64.2562C115.208 64.5899 115.093 64.9252 114.975 65.2623C114.606 66.3167 114.204 67.3877 113.769 68.4751C113.253 69.9101 112.736 71.2877 112.22 72.6079C111.703 73.8707 111.244 75.0187 110.842 76.0519L104.657 90.5166H126.277L119.969 75.7075ZM124.708 89.4792L119.011 76.1065C118.72 75.407 118.315 74.3942 117.797 73.072L117.788 73.0472L117.779 73.022C117.324 71.6566 116.811 70.2037 116.241 68.6632C116.001 68.0163 115.767 67.3844 115.537 66.7676C115.284 67.4532 115.019 68.1452 114.739 68.8434C114.222 70.2806 113.704 71.6614 113.186 72.9859L113.183 72.9933L113.18 73.0007C112.665 74.2591 112.208 75.4014 111.809 76.4278L111.803 76.4439L106.229 89.4792H124.708Z" fill="#F1592A"/>
<path fill-rule="evenodd" clip-rule="evenodd" d="M30.9126 115.145V52.8008H60.7072C64.2682 52.8008 67.5226 53.6775 70.4455 55.4406C73.4083 57.1361 75.7716 59.4706 77.5244 62.4297C79.348 65.411 80.256 68.726 80.256 72.3496C80.256 76.034 79.3175 79.4081 77.4352 82.4468C75.6238 85.4634 73.1757 87.8795 70.1053 89.6865C67.0675 91.5082 63.6972 92.4149 60.0184 92.4149H42.286V115.145H30.9126ZM41.2487 91.3776H60.0184C63.5198 91.3776 66.7055 90.5166 69.5755 88.7946C72.5028 87.0726 74.8275 84.7766 76.5495 81.9066C78.3289 79.0367 79.2186 75.851 79.2186 72.3496C79.2186 68.9056 78.3576 65.7773 76.6356 62.9647C74.971 60.1521 72.7324 57.9423 69.9199 56.3351C67.1647 54.6705 64.0938 53.8382 60.7072 53.8382H31.9499V114.108H41.2487V91.3776ZM63.9593 80.1576L63.9667 80.1532C65.3735 79.3196 66.4827 78.2347 67.3099 76.8931C68.1285 75.5087 68.5381 74.0011 68.5381 72.3496C68.5381 70.7591 68.1308 69.3476 67.3241 68.0872C66.5022 66.8029 65.3977 65.7719 63.9918 64.9908L63.9845 64.9868L63.9772 64.9826C62.6477 64.2156 61.1915 63.8299 59.5879 63.8299H42.286V81.3859H59.5879C61.1785 81.3859 62.6257 80.9783 63.9519 80.1622L63.9593 80.1576ZM41.2487 82.4232V62.7925H59.5879C61.3673 62.7925 63.0032 63.223 64.4956 64.084C66.0454 64.945 67.2795 66.093 68.1979 67.528C69.1163 68.963 69.5755 70.5702 69.5755 72.3496C69.5755 74.1864 69.1163 75.8797 68.1979 77.4295C67.2795 78.9219 66.0454 80.1272 64.4956 81.0456C63.0032 81.964 61.3673 82.4232 59.5879 82.4232H41.2487Z" fill="#F1592A"/>
</svg>
